<svg width="24" height="24" fill="none" xmlns="http://www.w3.org/2000/svg"><path d="M20.625 2.625H3.375a.75.75 0 00-.75.75v17.25c0 .415.335.75.75.75h17.25a.75.75 0 00.75-.75V3.375a.75.75 0 00-.75-.75zm-.938 17.063H4.313V4.313h15.375v15.375z" fill="#1890FF"/><path d="M4.313 19.688h15.375V4.313H4.313v15.375zm7.03-11.625c0-.104.085-.188.188-.188h4.313c.103 0 .187.084.187.188v1.124a.188.188 0 01-.187.188H11.53a.188.188 0 01-.187-.188V8.063zm0 3.374c0-.103.085-.187.188-.187h4.313c.103 0 .187.084.187.188v1.124a.188.188 0 01-.187.188H11.53a.188.188 0 01-.187-.188v-1.124zm0 3.376c0-.104.085-.188.188-.188h4.313c.103 0 .187.084.187.188v1.124a.188.188 0 01-.187.188H11.53a.188.188 0 01-.187-.188v-1.124zM8.907 7.686a.937.937 0 110 1.875.937.937 0 010-1.874zm0 3.375a.937.937 0 110 1.875.937.937 0 010-1.874zm0 3.376a.937.937 0 110 1.874.937.937 0 010-1.875z" fill="#E6F7FF"/><path d="M7.969 15.375a.937.937 0 101.875 0 .937.937 0 00-1.875 0zm0-3.375a.937.937 0 101.875 0 .937.937 0 00-1.875 0zm0-3.375a.937.937 0 101.875 0 .937.937 0 00-1.875 0zm3.562 7.5h4.313a.188.188 0 00.187-.188v-1.124a.188.188 0 00-.187-.188H11.53a.188.188 0 00-.187.188v1.124c0 .104.084.188.187.188zm0-3.375h4.313a.188.188 0 00.187-.188v-1.124a.188.188 0 00-.187-.188H11.53a.188.188 0 00-.187.188v1.124c0 .104.084.188.187.188zm0-3.375h4.313a.188.188 0 00.187-.188V8.063a.188.188 0 00-.187-.188H11.53a.188.188 0 00-.187.188v1.124c0 .104.084.188.187.188z" fill="#1890FF"/></svg>