<svg width="24" height="24" fill="none" xmlns="http://www.w3.org/2000/svg"><path d="M19.676 8.063H4.324c-.007 0-.011.004-.011.011v2.138c0 1.401 1.148 2.538 2.561 2.538a2.57 2.57 0 002.23-1.282.387.387 0 01.67 0A2.563 2.563 0 0012 12.75a2.56 2.56 0 002.229-1.287.378.378 0 01.326-.19h.014c.136 0 .258.073.325.19a2.567 2.567 0 002.232 1.287c1.413 0 2.561-1.137 2.561-2.538V8.074c0-.007-.004-.011-.011-.011z" fill="#E6F7FF"/><path d="M20.672 6.377V3.375a.75.75 0 00-.75-.75H4.078a.75.75 0 00-.75.75v3.002a.75.75 0 00-.703.748v3.087a4.148 4.148 0 00.338 1.65c.1.239.225.464.365.677v8.086c0 .413.336.75.75.75h15.844a.75.75 0 00.75-.75v-8.086a4.19 4.19 0 00.703-2.327V7.125a.75.75 0 00-.703-.748zM5.016 4.313h13.969v2.062H5.016V4.312zM13.5 19.69h-3v-2.44h3v2.44zm5.494 0H15V16.5a.75.75 0 00-.75-.75h-4.5a.75.75 0 00-.75.75v3.19H5.016v-5.677a4.225 4.225 0 001.86.424 4.283 4.283 0 002.557-.848.015.015 0 01.015 0c.28.21.584.383.907.518a4.23 4.23 0 001.65.33 4.282 4.282 0 002.557-.848.015.015 0 01.014 0 4.247 4.247 0 002.557.848 4.234 4.234 0 001.861-.424v5.677zm.694-9.478c0 1.401-1.149 2.538-2.562 2.538-.956 0-1.79-.518-2.231-1.287a.375.375 0 00-.326-.19h-.014a.378.378 0 00-.326.19A2.561 2.561 0 0112 12.75a2.563 2.563 0 01-2.226-1.282.387.387 0 00-.67 0 2.57 2.57 0 01-2.23 1.282c-1.413 0-2.561-1.137-2.561-2.538V8.074c0-.007.005-.011.012-.011h15.351c.007 0 .012.004.012.011v2.138z" fill="#1890FF"/></svg>