<svg width="24" height="24" fill="none" xmlns="http://www.w3.org/2000/svg"><path d="M20.906 18.094h-1.875v-1.875a.188.188 0 00-.187-.188h-1.125a.188.188 0 00-.188.188v1.875h-1.875a.188.188 0 00-.187.187v1.125c0 .103.084.188.187.188h1.875v1.875c0 .103.085.187.188.187h1.125a.188.188 0 00.187-.187v-1.875h1.875a.188.188 0 00.188-.188v-1.125a.188.188 0 00-.188-.187zM8.754 11.68a5.965 5.965 0 01.068-1.709.189.189 0 00-.106-.206 2.962 2.962 0 01-.865-.588 2.99 2.99 0 01-.907-2.236 2.985 2.985 0 01.851-2.006 2.984 2.984 0 012.185-.907 2.996 2.996 0 012.493 1.378.187.187 0 00.218.075 5.814 5.814 0 011.296-.29.188.188 0 00.148-.272 4.696 4.696 0 00-4.118-2.576c-2.597-.04-4.762 2.09-4.762 4.687 0 1.472.677 2.785 1.739 3.645a7.046 7.046 0 00-2.028 1.415 6.97 6.97 0 00-2.058 4.782.188.188 0 00.188.192H4.41c.1 0 .185-.08.187-.18a5.297 5.297 0 011.564-3.598 5.29 5.29 0 012.453-1.4.192.192 0 00.139-.206zm10.558-.618a4.69 4.69 0 00-4.615-4.688c-2.596-.04-4.76 2.09-4.76 4.688 0 1.471.68 2.784 1.74 3.644a7.056 7.056 0 00-2.026 1.416A6.97 6.97 0 007.594 20.9a.188.188 0 00.187.193h1.313c.1 0 .185-.08.187-.18a5.297 5.297 0 011.563-3.598 5.307 5.307 0 013.78-1.566 4.688 4.688 0 004.688-4.688zm-2.566 2.12a2.978 2.978 0 01-2.121.88 2.978 2.978 0 01-2.121-.88 2.983 2.983 0 01-.88-2.151 3.004 3.004 0 012.97-2.97 3.017 3.017 0 012.133.858c.581.57.9 1.332.9 2.143a2.99 2.99 0 01-.881 2.12z" fill="#002766"/></svg>